<mxfile host="app.diagrams.net" modified="2022-04-07T07:50:28.167Z" agent="5.0 (Windows NT 10.0; Win64; x64) AppleWebKit/537.36 (KHTML, like Gecko) Chrome/100.0.4896.60 Safari/537.36 Edg/100.0.1185.29" etag="0OJjw3zWyG_KzywOWM2W" version="17.4.0" type="github">
  <diagram id="HT6r6XyvwpQBPIijasMT" name="Page-1">
    <mxGraphModel dx="4261" dy="1533" grid="1" gridSize="10" guides="1" tooltips="1" connect="1" arrows="1" fold="1" page="1" pageScale="1" pageWidth="827" pageHeight="1169" math="0" shadow="0">
      <root>
        <mxCell id="0" />
        <mxCell id="1" parent="0" />
        <mxCell id="lO3RNEd2ny1g0KPbYaqU-1" value="" style="rounded=0;whiteSpace=wrap;html=1;fontSize=11;fillColor=none;strokeColor=#6c8ebf;strokeWidth=3;" vertex="1" parent="1">
          <mxGeometry x="120" y="430" width="480" height="230" as="geometry" />
        </mxCell>
        <mxCell id="lO3RNEd2ny1g0KPbYaqU-2" value="" style="rounded=0;whiteSpace=wrap;html=1;fontSize=11;fillColor=none;strokeColor=#6c8ebf;strokeWidth=3;" vertex="1" parent="1">
          <mxGeometry x="-540" y="430" width="480" height="230" as="geometry" />
        </mxCell>
        <mxCell id="lO3RNEd2ny1g0KPbYaqU-3" style="edgeStyle=orthogonalEdgeStyle;rounded=0;orthogonalLoop=1;jettySize=auto;html=1;exitX=0.5;exitY=1;exitDx=0;exitDy=0;entryX=0.5;entryY=0;entryDx=0;entryDy=0;" edge="1" parent="1" source="lO3RNEd2ny1g0KPbYaqU-4" target="lO3RNEd2ny1g0KPbYaqU-7">
          <mxGeometry relative="1" as="geometry" />
        </mxCell>
        <mxCell id="lO3RNEd2ny1g0KPbYaqU-4" value="HIHI Im a message" style="rounded=0;whiteSpace=wrap;html=1;align=left;" vertex="1" parent="1">
          <mxGeometry x="-800" y="300" width="220" height="40" as="geometry" />
        </mxCell>
        <mxCell id="lO3RNEd2ny1g0KPbYaqU-5" value="Application Layer" style="text;html=1;strokeColor=none;fillColor=none;align=center;verticalAlign=middle;whiteSpace=wrap;rounded=0;" vertex="1" parent="1">
          <mxGeometry x="-870" y="305" width="60" height="30" as="geometry" />
        </mxCell>
        <mxCell id="lO3RNEd2ny1g0KPbYaqU-6" style="edgeStyle=orthogonalEdgeStyle;rounded=0;orthogonalLoop=1;jettySize=auto;html=1;exitX=0.5;exitY=1;exitDx=0;exitDy=0;entryX=0.5;entryY=0;entryDx=0;entryDy=0;" edge="1" parent="1" source="lO3RNEd2ny1g0KPbYaqU-7" target="lO3RNEd2ny1g0KPbYaqU-10">
          <mxGeometry relative="1" as="geometry" />
        </mxCell>
        <mxCell id="lO3RNEd2ny1g0KPbYaqU-7" value="register or ordinary mail" style="rounded=0;whiteSpace=wrap;html=1;align=left;" vertex="1" parent="1">
          <mxGeometry x="-800" y="370" width="220" height="40" as="geometry" />
        </mxCell>
        <mxCell id="lO3RNEd2ny1g0KPbYaqU-8" value="Transport Layer" style="text;html=1;strokeColor=none;fillColor=none;align=center;verticalAlign=middle;whiteSpace=wrap;rounded=0;" vertex="1" parent="1">
          <mxGeometry x="-870" y="380" width="60" height="30" as="geometry" />
        </mxCell>
        <mxCell id="lO3RNEd2ny1g0KPbYaqU-9" style="edgeStyle=orthogonalEdgeStyle;rounded=0;orthogonalLoop=1;jettySize=auto;html=1;exitX=0.5;exitY=1;exitDx=0;exitDy=0;entryX=0.5;entryY=0;entryDx=0;entryDy=0;" edge="1" parent="1" source="lO3RNEd2ny1g0KPbYaqU-10" target="lO3RNEd2ny1g0KPbYaqU-14">
          <mxGeometry relative="1" as="geometry" />
        </mxCell>
        <mxCell id="lO3RNEd2ny1g0KPbYaqU-10" value="&lt;font&gt;&lt;font style=&quot;font-size: 11px&quot;&gt;register mail&lt;br&gt;source address: NCKU&lt;br&gt;destination address: TA&#39;s home in Taipei&lt;br&gt;&lt;/font&gt;&lt;/font&gt;" style="rounded=0;whiteSpace=wrap;html=1;align=left;" vertex="1" parent="1">
          <mxGeometry x="-800" y="440" width="220" height="70" as="geometry" />
        </mxCell>
        <mxCell id="lO3RNEd2ny1g0KPbYaqU-11" value="Network&lt;br&gt;Layer" style="text;html=1;strokeColor=none;fillColor=none;align=center;verticalAlign=middle;whiteSpace=wrap;rounded=0;" vertex="1" parent="1">
          <mxGeometry x="-870" y="450" width="60" height="30" as="geometry" />
        </mxCell>
        <mxCell id="lO3RNEd2ny1g0KPbYaqU-12" value="Link&lt;br&gt;Layer" style="text;html=1;strokeColor=none;fillColor=none;align=center;verticalAlign=middle;whiteSpace=wrap;rounded=0;" vertex="1" parent="1">
          <mxGeometry x="-870" y="555" width="60" height="30" as="geometry" />
        </mxCell>
        <mxCell id="lO3RNEd2ny1g0KPbYaqU-13" style="edgeStyle=orthogonalEdgeStyle;rounded=0;orthogonalLoop=1;jettySize=auto;html=1;entryX=0;entryY=0.5;entryDx=0;entryDy=0;fontSize=11;fontColor=#666666;" edge="1" parent="1" source="lO3RNEd2ny1g0KPbYaqU-14" target="lO3RNEd2ny1g0KPbYaqU-16">
          <mxGeometry relative="1" as="geometry" />
        </mxCell>
        <mxCell id="lO3RNEd2ny1g0KPbYaqU-14" value="&lt;font&gt;&lt;font style=&quot;font-size: 11px&quot;&gt;register mail&lt;br&gt;source address: NCKU&lt;br&gt;destination address: TA&#39;s home in Taipei&lt;br&gt;&lt;/font&gt;&lt;/font&gt;" style="rounded=0;whiteSpace=wrap;html=1;align=left;" vertex="1" parent="1">
          <mxGeometry x="-800" y="540" width="220" height="70" as="geometry" />
        </mxCell>
        <mxCell id="lO3RNEd2ny1g0KPbYaqU-15" style="edgeStyle=orthogonalEdgeStyle;rounded=0;orthogonalLoop=1;jettySize=auto;html=1;exitX=0.75;exitY=0;exitDx=0;exitDy=0;entryX=0.203;entryY=0.984;entryDx=0;entryDy=0;entryPerimeter=0;fontSize=11;fontColor=#666666;" edge="1" parent="1" source="lO3RNEd2ny1g0KPbYaqU-16" target="lO3RNEd2ny1g0KPbYaqU-22">
          <mxGeometry relative="1" as="geometry" />
        </mxCell>
        <mxCell id="lO3RNEd2ny1g0KPbYaqU-16" value="&lt;font&gt;&lt;font style=&quot;font-size: 11px&quot;&gt;register mail&lt;br&gt;source address: NCKU&lt;br&gt;destination address: TA&#39;s home in Taipei&lt;br&gt;&lt;/font&gt;&lt;/font&gt;" style="rounded=0;whiteSpace=wrap;html=1;align=left;" vertex="1" parent="1">
          <mxGeometry x="-530" y="540" width="220" height="70" as="geometry" />
        </mxCell>
        <mxCell id="lO3RNEd2ny1g0KPbYaqU-17" value="&lt;font style=&quot;font-size: 11px&quot; color=&quot;#666666&quot;&gt;From: NCKU&lt;br&gt;To: Tainan Post Office&lt;br style=&quot;font-size: 11px&quot;&gt;(sent to gateway)&lt;br&gt;&lt;/font&gt;" style="text;html=1;strokeColor=none;fillColor=none;align=center;verticalAlign=middle;whiteSpace=wrap;rounded=0;" vertex="1" parent="1">
          <mxGeometry x="-760" y="620" width="140" height="30" as="geometry" />
        </mxCell>
        <mxCell id="lO3RNEd2ny1g0KPbYaqU-18" value="&lt;span style=&quot;color: rgb(102 , 102 , 102) ; font-size: 11px&quot;&gt;From: NCKU&lt;/span&gt;&lt;br style=&quot;color: rgb(102 , 102 , 102) ; font-size: 11px&quot;&gt;&lt;span style=&quot;color: rgb(102 , 102 , 102) ; font-size: 11px&quot;&gt;To: Tainan Post Office&lt;/span&gt;" style="text;html=1;strokeColor=none;fillColor=none;align=center;verticalAlign=middle;whiteSpace=wrap;rounded=0;" vertex="1" parent="1">
          <mxGeometry x="-495" y="620" width="150" height="30" as="geometry" />
        </mxCell>
        <mxCell id="lO3RNEd2ny1g0KPbYaqU-19" value="&lt;font&gt;&lt;font style=&quot;font-size: 11px&quot;&gt;register mail&lt;br&gt;source address: NCKU&lt;br&gt;destination address: TA&#39;s home in Taipei&lt;br&gt;&lt;/font&gt;&lt;/font&gt;" style="rounded=0;whiteSpace=wrap;html=1;align=left;" vertex="1" parent="1">
          <mxGeometry x="-290" y="540" width="220" height="70" as="geometry" />
        </mxCell>
        <mxCell id="lO3RNEd2ny1g0KPbYaqU-20" value="&lt;span style=&quot;color: rgb(102 , 102 , 102) ; font-size: 11px&quot;&gt;From:&amp;nbsp;&lt;/span&gt;&lt;span style=&quot;color: rgb(102 , 102 , 102) ; font-size: 11px&quot;&gt;Tainan Post Office&lt;/span&gt;&lt;br style=&quot;color: rgb(102 , 102 , 102) ; font-size: 11px&quot;&gt;&lt;span style=&quot;color: rgb(102 , 102 , 102) ; font-size: 11px&quot;&gt;To: Chiayi transfer station&lt;/span&gt;" style="text;html=1;strokeColor=none;fillColor=none;align=center;verticalAlign=middle;whiteSpace=wrap;rounded=0;" vertex="1" parent="1">
          <mxGeometry x="-255" y="620" width="150" height="30" as="geometry" />
        </mxCell>
        <mxCell id="lO3RNEd2ny1g0KPbYaqU-21" style="edgeStyle=orthogonalEdgeStyle;rounded=0;orthogonalLoop=1;jettySize=auto;html=1;exitX=0.75;exitY=1;exitDx=0;exitDy=0;entryX=0.206;entryY=-0.021;entryDx=0;entryDy=0;entryPerimeter=0;fontSize=11;fontColor=#666666;" edge="1" parent="1">
          <mxGeometry relative="1" as="geometry">
            <mxPoint x="-235.00000000000045" y="510" as="sourcePoint" />
            <mxPoint x="-234.6800000000003" y="538.5299999999997" as="targetPoint" />
          </mxGeometry>
        </mxCell>
        <mxCell id="lO3RNEd2ny1g0KPbYaqU-22" value="&lt;font&gt;&lt;font style=&quot;font-size: 11px&quot;&gt;register mail&lt;br&gt;source address: NCKU&lt;br&gt;destination address: TA&#39;s home in Taipei&lt;br&gt;&lt;/font&gt;&lt;/font&gt;" style="rounded=0;whiteSpace=wrap;html=1;align=left;" vertex="1" parent="1">
          <mxGeometry x="-410" y="440" width="220" height="70" as="geometry" />
        </mxCell>
        <mxCell id="lO3RNEd2ny1g0KPbYaqU-23" value="&lt;font color=&quot;#000000&quot; style=&quot;font-size: 12px&quot;&gt;Router&lt;br&gt;Tainan Post Office&lt;br&gt;&lt;b&gt;How to send the mail to TA&#39;s home in Taipei&lt;/b&gt;&lt;/font&gt;" style="text;html=1;strokeColor=none;fillColor=none;align=center;verticalAlign=middle;whiteSpace=wrap;rounded=1;fontSize=11;fontColor=#666666;" vertex="1" parent="1">
          <mxGeometry x="-427.5" y="390" width="255" height="30" as="geometry" />
        </mxCell>
        <mxCell id="lO3RNEd2ny1g0KPbYaqU-24" style="edgeStyle=orthogonalEdgeStyle;rounded=0;orthogonalLoop=1;jettySize=auto;html=1;exitX=0.75;exitY=0;exitDx=0;exitDy=0;entryX=0.203;entryY=0.984;entryDx=0;entryDy=0;entryPerimeter=0;fontSize=11;fontColor=#666666;" edge="1" parent="1" source="lO3RNEd2ny1g0KPbYaqU-25" target="lO3RNEd2ny1g0KPbYaqU-31">
          <mxGeometry relative="1" as="geometry" />
        </mxCell>
        <mxCell id="lO3RNEd2ny1g0KPbYaqU-25" value="&lt;font&gt;&lt;font style=&quot;font-size: 11px&quot;&gt;register mail&lt;br&gt;source address: NCKU&lt;br&gt;destination address: TA&#39;s home in Taipei&lt;br&gt;&lt;/font&gt;&lt;/font&gt;" style="rounded=0;whiteSpace=wrap;html=1;align=left;" vertex="1" parent="1">
          <mxGeometry x="130" y="540" width="220" height="70" as="geometry" />
        </mxCell>
        <mxCell id="lO3RNEd2ny1g0KPbYaqU-26" value="&lt;font style=&quot;font-size: 11px&quot; color=&quot;#666666&quot;&gt;From:&amp;nbsp;&lt;/font&gt;&lt;span style=&quot;color: rgb(102 , 102 , 102) ; font-size: 11px&quot;&gt;New Taipei transfer station&lt;/span&gt;&lt;font style=&quot;font-size: 11px&quot; color=&quot;#666666&quot;&gt;&lt;br&gt;To:&amp;nbsp;&lt;/font&gt;&lt;span style=&quot;color: rgb(102 , 102 , 102) ; font-size: 11px&quot;&gt;Taipei Post Office&lt;/span&gt;&lt;font style=&quot;font-size: 11px&quot; color=&quot;#666666&quot;&gt;&lt;br&gt;&lt;/font&gt;" style="text;html=1;strokeColor=none;fillColor=none;align=center;verticalAlign=middle;whiteSpace=wrap;rounded=0;" vertex="1" parent="1">
          <mxGeometry x="147.5" y="620" width="185" height="30" as="geometry" />
        </mxCell>
        <mxCell id="lO3RNEd2ny1g0KPbYaqU-27" style="edgeStyle=orthogonalEdgeStyle;rounded=0;orthogonalLoop=1;jettySize=auto;html=1;entryX=0;entryY=0.5;entryDx=0;entryDy=0;fontSize=12;fontColor=#000000;" edge="1" parent="1" source="lO3RNEd2ny1g0KPbYaqU-28" target="lO3RNEd2ny1g0KPbYaqU-40">
          <mxGeometry relative="1" as="geometry" />
        </mxCell>
        <mxCell id="lO3RNEd2ny1g0KPbYaqU-28" value="&lt;font&gt;&lt;font style=&quot;font-size: 11px&quot;&gt;register mail&lt;br&gt;source address: NCKU&lt;br&gt;destination address: TA&#39;s home in Taipei&lt;br&gt;&lt;/font&gt;&lt;/font&gt;" style="rounded=0;whiteSpace=wrap;html=1;align=left;" vertex="1" parent="1">
          <mxGeometry x="370" y="540" width="220" height="70" as="geometry" />
        </mxCell>
        <mxCell id="lO3RNEd2ny1g0KPbYaqU-29" value="&lt;font color=&quot;#666666&quot; style=&quot;font-size: 11px&quot;&gt;From:&amp;nbsp;&lt;/font&gt;&lt;span style=&quot;color: rgb(102 , 102 , 102) ; font-size: 11px&quot;&gt;Taipei Post Office&lt;/span&gt;&lt;font color=&quot;#666666&quot; style=&quot;font-size: 11px&quot;&gt;&lt;br&gt;To: TA&#39;s home in Taipei&lt;/font&gt;&lt;font style=&quot;font-size: 11px&quot; color=&quot;#666666&quot;&gt;&lt;br&gt;&lt;/font&gt;" style="text;html=1;strokeColor=none;fillColor=none;align=center;verticalAlign=middle;whiteSpace=wrap;rounded=0;" vertex="1" parent="1">
          <mxGeometry x="405" y="620" width="150" height="30" as="geometry" />
        </mxCell>
        <mxCell id="lO3RNEd2ny1g0KPbYaqU-30" style="edgeStyle=orthogonalEdgeStyle;rounded=0;orthogonalLoop=1;jettySize=auto;html=1;exitX=0.75;exitY=1;exitDx=0;exitDy=0;entryX=0.206;entryY=-0.021;entryDx=0;entryDy=0;entryPerimeter=0;fontSize=11;fontColor=#666666;" edge="1" parent="1">
          <mxGeometry relative="1" as="geometry">
            <mxPoint x="425" y="510" as="sourcePoint" />
            <mxPoint x="425.3199999999997" y="538.5299999999997" as="targetPoint" />
          </mxGeometry>
        </mxCell>
        <mxCell id="lO3RNEd2ny1g0KPbYaqU-31" value="&lt;font&gt;&lt;font style=&quot;font-size: 11px&quot;&gt;register mail&lt;br&gt;source address: NCKU&lt;br&gt;destination address: TA&#39;s home in Taipei&lt;br&gt;&lt;/font&gt;&lt;/font&gt;" style="rounded=0;whiteSpace=wrap;html=1;align=left;" vertex="1" parent="1">
          <mxGeometry x="250" y="440" width="220" height="70" as="geometry" />
        </mxCell>
        <mxCell id="lO3RNEd2ny1g0KPbYaqU-32" value="&lt;span style=&quot;color: rgb(0 , 0 , 0) ; font-size: 12px&quot;&gt;Router&lt;/span&gt;&lt;br style=&quot;color: rgb(0 , 0 , 0) ; font-size: 12px&quot;&gt;&lt;span style=&quot;color: rgb(0 , 0 , 0) ; font-size: 12px&quot;&gt;Taipei Post Office&lt;/span&gt;&lt;br style=&quot;color: rgb(0 , 0 , 0) ; font-size: 12px&quot;&gt;&lt;b style=&quot;color: rgb(0 , 0 , 0) ; font-size: 12px&quot;&gt;How to send the mail to TA&#39;s home in Taipei&lt;br&gt;&lt;/b&gt;&lt;font color=&quot;#000000&quot; style=&quot;font-size: 12px&quot;&gt;&lt;b&gt;Wait, TA&#39;s home in Taipei is in my area just send it directly&lt;/b&gt;&lt;br&gt;&lt;/font&gt;" style="text;html=1;strokeColor=none;fillColor=none;align=center;verticalAlign=middle;whiteSpace=wrap;rounded=1;fontSize=11;fontColor=#666666;" vertex="1" parent="1">
          <mxGeometry x="95" y="380" width="530" height="30" as="geometry" />
        </mxCell>
        <mxCell id="lO3RNEd2ny1g0KPbYaqU-33" style="edgeStyle=orthogonalEdgeStyle;rounded=0;orthogonalLoop=1;jettySize=auto;html=1;exitX=0.5;exitY=1;exitDx=0;exitDy=0;fontSize=12;fontColor=#000000;" edge="1" parent="1">
          <mxGeometry relative="1" as="geometry">
            <mxPoint x="360" y="410" as="sourcePoint" />
            <mxPoint x="360" y="410" as="targetPoint" />
          </mxGeometry>
        </mxCell>
        <mxCell id="lO3RNEd2ny1g0KPbYaqU-34" value="HIHI Im a message" style="rounded=0;whiteSpace=wrap;html=1;align=left;" vertex="1" parent="1">
          <mxGeometry x="640" y="300" width="220" height="40" as="geometry" />
        </mxCell>
        <mxCell id="lO3RNEd2ny1g0KPbYaqU-35" style="edgeStyle=orthogonalEdgeStyle;rounded=0;orthogonalLoop=1;jettySize=auto;html=1;fontSize=12;fontColor=#000000;" edge="1" parent="1" source="lO3RNEd2ny1g0KPbYaqU-36" target="lO3RNEd2ny1g0KPbYaqU-34">
          <mxGeometry relative="1" as="geometry" />
        </mxCell>
        <mxCell id="lO3RNEd2ny1g0KPbYaqU-36" value="register or ordinary mail" style="rounded=0;whiteSpace=wrap;html=1;align=left;" vertex="1" parent="1">
          <mxGeometry x="640" y="370" width="220" height="40" as="geometry" />
        </mxCell>
        <mxCell id="lO3RNEd2ny1g0KPbYaqU-37" style="edgeStyle=orthogonalEdgeStyle;rounded=0;orthogonalLoop=1;jettySize=auto;html=1;fontSize=12;fontColor=#000000;" edge="1" parent="1" source="lO3RNEd2ny1g0KPbYaqU-38" target="lO3RNEd2ny1g0KPbYaqU-36">
          <mxGeometry relative="1" as="geometry" />
        </mxCell>
        <mxCell id="lO3RNEd2ny1g0KPbYaqU-38" value="&lt;font&gt;&lt;font style=&quot;font-size: 11px&quot;&gt;register mail&lt;br&gt;source address: NCKU&lt;br&gt;destination address: TA&#39;s home in Taipei&lt;br&gt;&lt;/font&gt;&lt;/font&gt;" style="rounded=0;whiteSpace=wrap;html=1;align=left;" vertex="1" parent="1">
          <mxGeometry x="640" y="440" width="220" height="70" as="geometry" />
        </mxCell>
        <mxCell id="lO3RNEd2ny1g0KPbYaqU-39" style="edgeStyle=orthogonalEdgeStyle;rounded=0;orthogonalLoop=1;jettySize=auto;html=1;entryX=0.5;entryY=1;entryDx=0;entryDy=0;fontSize=12;fontColor=#000000;" edge="1" parent="1" source="lO3RNEd2ny1g0KPbYaqU-40" target="lO3RNEd2ny1g0KPbYaqU-38">
          <mxGeometry relative="1" as="geometry" />
        </mxCell>
        <mxCell id="lO3RNEd2ny1g0KPbYaqU-40" value="&lt;font&gt;&lt;font style=&quot;font-size: 11px&quot;&gt;register mail&lt;br&gt;source address: NCKU&lt;br&gt;destination address: TA&#39;s home in Taipei&lt;br&gt;&lt;/font&gt;&lt;/font&gt;" style="rounded=0;whiteSpace=wrap;html=1;align=left;" vertex="1" parent="1">
          <mxGeometry x="640" y="540" width="220" height="70" as="geometry" />
        </mxCell>
        <mxCell id="lO3RNEd2ny1g0KPbYaqU-42" value="" style="endArrow=none;dashed=1;html=1;dashPattern=1 3;strokeWidth=2;rounded=0;fontSize=12;fontColor=#000000;" edge="1" parent="1">
          <mxGeometry width="50" height="50" relative="1" as="geometry">
            <mxPoint x="10" y="574.6700000000001" as="sourcePoint" />
            <mxPoint x="50" y="574.6700000000001" as="targetPoint" />
          </mxGeometry>
        </mxCell>
        <mxCell id="lO3RNEd2ny1g0KPbYaqU-43" value="" style="shape=flexArrow;endArrow=classic;html=1;rounded=0;fontSize=12;fontColor=#000000;" edge="1" parent="1">
          <mxGeometry width="50" height="50" relative="1" as="geometry">
            <mxPoint x="-50" y="575" as="sourcePoint" />
            <mxPoint y="575" as="targetPoint" />
          </mxGeometry>
        </mxCell>
        <mxCell id="lO3RNEd2ny1g0KPbYaqU-44" value="" style="shape=flexArrow;endArrow=classic;html=1;rounded=0;fontSize=12;fontColor=#000000;" edge="1" parent="1">
          <mxGeometry width="50" height="50" relative="1" as="geometry">
            <mxPoint x="60" y="574.6700000000001" as="sourcePoint" />
            <mxPoint x="110" y="574.6700000000001" as="targetPoint" />
          </mxGeometry>
        </mxCell>
        <mxCell id="lO3RNEd2ny1g0KPbYaqU-48" value="" style="shape=image;verticalLabelPosition=bottom;labelBackgroundColor=default;verticalAlign=top;aspect=fixed;imageAspect=0;image=https://i.imgur.com/GE6F5y4.png;" vertex="1" parent="1">
          <mxGeometry x="-150" y="730" width="520" height="142" as="geometry" />
        </mxCell>
        <mxCell id="lO3RNEd2ny1g0KPbYaqU-49" value="&lt;font color=&quot;#666666&quot; style=&quot;font-size: 11px&quot;&gt;From:&amp;nbsp;&lt;/font&gt;&lt;span style=&quot;color: rgb(102 , 102 , 102) ; font-size: 11px&quot;&gt;Taipei Post Office&lt;/span&gt;&lt;font color=&quot;#666666&quot; style=&quot;font-size: 11px&quot;&gt;&lt;br&gt;To: TA&#39;s home in Taipei&lt;/font&gt;&lt;font style=&quot;font-size: 11px&quot; color=&quot;#666666&quot;&gt;&lt;br&gt;&lt;/font&gt;" style="text;html=1;strokeColor=none;fillColor=none;align=center;verticalAlign=middle;whiteSpace=wrap;rounded=0;" vertex="1" parent="1">
          <mxGeometry x="675" y="620" width="150" height="30" as="geometry" />
        </mxCell>
      </root>
    </mxGraphModel>
  </diagram>
</mxfile>
